<svg xmlns="http://www.w3.org/2000/svg" xmlns:xlink="http://www.w3.org/1999/xlink" width="64" height="64" viewBox="0 0 64 64">
  <defs>
    <linearGradient id="linear-gradient" x1="0.174" y1="0.175" x2="0.813" y2="0.873" gradientUnits="objectBoundingBox">
      <stop offset="0" stop-color="#8afe8e"/>
      <stop offset="1" stop-color="#18c84a"/>
    </linearGradient>
  </defs>
  <g id="Group_25" data-name="Group 25" transform="translate(-120 34)">
    <circle id="Ellipse_25" data-name="Ellipse 25" cx="32" cy="32" r="32" transform="translate(120 -34)" fill="url(#linear-gradient)"/>
    <g id="banana_1_" data-name="banana (1)" transform="translate(135.001 -12.144)">
      <path id="Path_9" data-name="Path 9" d="M62.261,24.934a1.223,1.223,0,0,0-1.6-.789l-.72.27a5.726,5.726,0,0,0-1.858,1.139,28.265,28.265,0,0,1-10.6,6.328C38.095,34.743,33.1,26.72,32.009,24.691L30.9,27.019A4.865,4.865,0,0,1,32.053,29.5c.327,4.241,5.137,12.4,17.352,8.676,4.806-1.464,10.86-4.667,12.874-12.578a1.243,1.243,0,0,0-.018-.665Zm0,0" transform="translate(-28.884 -22.493)" fill="#fff"/>
      <path id="Path_10" data-name="Path 10" d="M62.26,26.639a1.218,1.218,0,0,0-.649-.749,16.1,16.1,0,0,1-4.954,7.632,16.944,16.944,0,0,1-10.7,3.963q-.216,0-.432,0A11.821,11.821,0,0,1,34.27,29.632,17.9,17.9,0,0,1,32.008,26.4L30.9,28.724a4.864,4.864,0,0,1,1.151,2.482c.327,4.241,5.137,12.4,17.352,8.676a23.262,23.262,0,0,0,5.178-2.255h0A16.288,16.288,0,0,0,62.278,27.3a1.243,1.243,0,0,0-.018-.665Zm0,0" transform="translate(-28.884 -24.199)" fill="#e7e7e7"/>
      <path id="Path_11" data-name="Path 11" d="M480.959,24.145l-.381.143,1.855,1.844c.05-.176.1-.353.144-.533a1.242,1.242,0,0,0-.018-.665,1.223,1.223,0,0,0-1.6-.789Zm0,0" transform="translate(-449.183 -22.493)" fill="#a0a0a0"/>
      <path id="Path_12" data-name="Path 12" d="M32.094,10.668l-.8.051a5.95,5.95,0,0,0-2.194.571A29.408,29.408,0,0,1,16.64,14.375c-10.215,0-12.754-9.5-13.225-11.848a2.187,2.187,0,0,0-.452-.959L1.839.2a.542.542,0,0,0-.8-.039l-.878.878a.539.539,0,0,0-.064.689C.761,2.688,2.439,5.36,2,7.327,1.041,11.647,3.357,21.22,16.64,21.22c5.226,0,12.222-1.353,16.624-8.615a1.291,1.291,0,0,0,.184-.667,1.273,1.273,0,0,0-1.354-1.271Zm0,0" transform="translate(0 0)" fill="#fff"/>
      <path id="Path_13" data-name="Path 13" d="M58.939,110.5c-4.426,6.532-11.089,7.784-16.117,7.784-11.458,0-14.767-7.094-14.853-11.825a2.971,2.971,0,0,1-.057.371c-.96,4.32,1.356,13.893,14.639,13.893,5.226,0,12.222-1.353,16.624-8.615a1.291,1.291,0,0,0,.184-.667,1.266,1.266,0,0,0-.419-.942Zm0,0" transform="translate(-25.91 -99.508)" fill="#e7e7e7"/>
      <path id="Path_14" data-name="Path 14" d="M3.213,1.954a2.157,2.157,0,0,0-.249-.385L1.84.2a.542.542,0,0,0-.8-.04L.16,1.037A.539.539,0,0,0,.1,1.727,15.416,15.416,0,0,1,1.212,3.614Zm0,0" transform="translate(-0.001 0)" fill="#a0a0a0"/>
      <path id="Path_15" data-name="Path 15" d="M485.235,163.247l-.422.027,1.287,2.4c.1-.16.2-.321.3-.486a1.293,1.293,0,0,0,.184-.667A1.273,1.273,0,0,0,485.235,163.247Zm0,0" transform="translate(-453.141 -152.579)" fill="#a0a0a0"/>
    </g>
  </g>
</svg>
