<svg xmlns="http://www.w3.org/2000/svg" xmlns:xlink="http://www.w3.org/1999/xlink" width="64" height="64" viewBox="0 0 64 64">
  <defs>
    <linearGradient id="linear-gradient" x1="0.174" y1="0.175" x2="0.813" y2="0.873" gradientUnits="objectBoundingBox">
      <stop offset="0" stop-color="#ad8cff"/>
      <stop offset="1" stop-color="#794ffe"/>
    </linearGradient>
  </defs>
  <g id="Group_22" data-name="Group 22" transform="translate(-120 113)">
    <circle id="Ellipse_21" data-name="Ellipse 21" cx="32" cy="32" r="32" transform="translate(120 -113)" fill="url(#linear-gradient)"/>
    <g id="Group_11" data-name="Group 11" transform="translate(513 -137)">
      <path id="Exclusion_1" data-name="Exclusion 1" d="M18,22H2a2,2,0,0,1-2-2V2A2,2,0,0,1,2,0H18a2,2,0,0,1,2,2V20A2,2,0,0,1,18,22Zm-3-6a2,2,0,1,0,2,2A2,2,0,0,0,15,16ZM5,16a2,2,0,1,0,2,2A2,2,0,0,0,5,16ZM4,2A2,2,0,0,0,2,4v8a2,2,0,0,0,2,2H16a2,2,0,0,0,2-2V4a2,2,0,0,0-2-2Z" transform="translate(-371 43)" fill="#fff"/>
      <rect id="Rectangle_21" data-name="Rectangle 21" width="4" height="3" rx="0.5" transform="translate(-369 66)" fill="#fff"/>
      <rect id="Rectangle_22" data-name="Rectangle 22" width="4" height="3" rx="0.5" transform="translate(-357 66)" fill="#fff"/>
      <rect id="Rectangle_24" data-name="Rectangle 24" width="4" height="2" rx="0.5" transform="translate(-348.5 49.5) rotate(90)" fill="#fff"/>
      <rect id="Rectangle_25" data-name="Rectangle 25" width="4" height="2" rx="0.5" transform="translate(-371.5 49.5) rotate(90)" fill="#fff"/>
    </g>
  </g>
</svg>
