<svg xmlns="http://www.w3.org/2000/svg" xmlns:xlink="http://www.w3.org/1999/xlink" width="64" height="64" viewBox="0 0 64 64">
  <defs>
    <linearGradient id="linear-gradient" x1="0.174" y1="0.175" x2="0.813" y2="0.873" gradientUnits="objectBoundingBox">
      <stop offset="0" stop-color="#ffc5a1"/>
      <stop offset="1" stop-color="#ff8a40"/>
    </linearGradient>
  </defs>
  <g id="Group_26" data-name="Group 26" transform="translate(-41 34)">
    <circle id="Ellipse_23" data-name="Ellipse 23" cx="32" cy="32" r="32" transform="translate(41 -34)" fill="url(#linear-gradient)"/>
    <g id="Group_13" data-name="Group 13" transform="translate(334 -72)">
      <path id="Exclusion_3" data-name="Exclusion 3" d="M20,26H2a2,2,0,0,1-2-2V2A2,2,0,0,1,2,0H20a2,2,0,0,1,2,2V24A2,2,0,0,1,20,26ZM3.5,11a.5.5,0,0,0-.5.5v1a.5.5,0,0,0,.5.5h8a.5.5,0,0,0,.5-.5v-1a.5.5,0,0,0-.5-.5Zm0-3a.5.5,0,0,0-.5.5v1a.5.5,0,0,0,.5.5h15a.5.5,0,0,0,.5-.5v-1a.5.5,0,0,0-.5-.5Zm0-3a.5.5,0,0,0-.5.5v1a.5.5,0,0,0,.5.5h15a.5.5,0,0,0,.5-.5v-1a.5.5,0,0,0-.5-.5Z" transform="translate(-272 57)" fill="#fff"/>
    </g>
  </g>
</svg>
